<svg xmlns="http://www.w3.org/2000/svg" viewBox="0 0 615 798" fill="none">
  <g transform="translate(0,798) scale(0.1,-0.1)">
    <path d="M2801 7459 c-241 -26 -541 -116 -773 -234 -766 -390 -1238 -1106
-1284 -1948 -7 -133 7 -362 31 -503 36 -212 121 -460 227 -667 61 -117 61
-117 0 -235 -326 -633 -346 -1357 -54 -2010 293 -655 942 -1164 1671 -1312
270 -54 642 -54 912 0 729 148 1378 657 1671 1312 190 424 250 891 173 1344
-36 212 -121 460 -227 667 -61 117 -61 117 0 235 326 633 346 1357 54 2010
-149 333 -411 655 -716 882 -345 255 -756 419 -1155 460 -120 12 -409 11 -530
-1z" fill="#59d499"/>
    <path d="M2918 6419 c-189 -22 -438 -120 -601 -237 -149 -107 -311 -298 -395
-467 -86 -175 -125 -349 -126 -565 0 -266 65 -492 202 -700 68 -104 191 -243
208 -236 8 3 48 -22 92 -57 42 -34 107 -84 145 -111 37 -26 67 -51 67 -56 0
-5 -30 -30 -67 -56 -38 -27 -103 -77 -145 -111 -44 -35 -84 -60 -92 -57 -17 7
-140 -132 -208 -236 -137 -208 -202 -434 -202 -700 1 -216 40 -390 126 -565
84 -169 246 -360 395 -467 177 -127 416 -217 639 -239 296 -30 628 60 877 239
149 107 311 298 395 467 86 175 125 349 126 565 0 266 -65 492 -202 700 -68
104 -191 243 -208 236 -8 -3 -48 22 -92 57 -42 34 -107 84 -144 111 -38 26
-68 51 -68 56 0 5 30 30 68 56 37 27 102 77 144 111 44 35 84 60 92 57 17 -7
140 132 208 236 137 208 202 434 202 700 -1 216 -40 390 -126 565 -84 169
-246 360 -395 467 -260 187 -595 273 -915 237z" fill="#101111"/>
    <path d="M2860 6754 c-331 -47 -643 -191 -875 -404 -279 -256 -445 -557 -521
-945 -28 -139 -25 -435 5 -575 63 -294 202 -571 387 -770 66 -71 65 -78 -11
-167 -238 -278 -379 -619 -405 -976 -25 -350 65 -683 268 -992 88 -133 291
-337 422 -424 273 -182 549 -273 870 -288 425 -19 860 136 1165 417 279 256
445 557 521 945 28 139 25 435 -5 575 -63 294 -202 571 -387 770 -66 71 -65
78 11 167 238 278 379 619 405 976 25 350 -65 683 -268 992 -88 133 -291 337
-422 424 -197 131 -416 222 -627 262 -146 27 -393 33 -533 13z m450 -344 c110
-22 247 -68 331 -110 246 -125 467 -350 585 -595 98 -207 136 -364 135 -570 0
-334 -114 -617 -353 -879 -54 -60 -54 -60 -264 93 -318 234 -333 245 -334 258
0 6 -6 14 -12 16 -8 3 6 24 39 55 122 119 181 212 214 340 24 96 24 198 0 295
-29 110 -54 152 -145 242 -125 124 -257 177 -436 178 -156 0 -337 -84 -445
-206 -57 -64 -120 -192 -134 -271 -23 -128 -5 -259 50 -372 37 -74 142 -193
222 -250 29 -21 126 -92 217 -159 91 -67 275 -202 410 -300 424 -309 482 -355
590 -464 362 -365 474 -855 305 -1327 -104 -293 -343 -558 -634 -704 -83 -41
-246 -94 -351 -114 -192 -37 -448 -15 -647 55 -314 111 -586 355 -729 654 -98
207 -136 364 -135 570 0 334 114 617 353 879 54 60 54 60 264 -93 318 -234
333 -245 334 -258 0 -6 6 -14 13 -16 7 -3 -7 -24 -40 -55 -122 -119 -181 -212
-214 -340 -24 -96 -24 -198 0 -295 29 -110 54 -152 145 -242 125 -124 257
-177 436 -178 156 0 337 84 445 206 57 64 120 192 134 271 23 128 5 259 -50
372 -37 74 -142 193 -222 250 -29 21 -126 92 -217 159 -91 67 -275 202 -410
300 -424 309 -482 355 -590 464 -362 365 -474 855 -305 1327 104 292 344 558
633 703 80 40 224 89 332 112 123 26 350 25 480 -1z" fill="#ffffff"/>
  </g>
</svg>